<?xml version="1.0" encoding="UTF-8" standalone="no"?>
<!DOCTYPE svg PUBLIC "-//W3C//DTD SVG 1.1//EN"
"http://www.w3.org/Graphics/SVG/1.1/DTD/svg11.dtd">
<svg viewBox="0 0 1210 935" version="1.1" xmlns="http://www.w3.org/2000/svg" xmlns:xlink="http://www.w3.org/1999/xlink">
<defs>
<style type="text/css"><![CDATA[
.g1_14{
fill: none;
stroke: #0DA75C;
stroke-width: 1.5277778;
stroke-linecap: butt;
stroke-linejoin: miter;
stroke-miterlimit: 4;
}
.g2_14{
fill: #FFFFFF;
stroke: #0DA75C;
stroke-width: 1.5277778;
stroke-linecap: butt;
stroke-linejoin: miter;
stroke-miterlimit: 4;
}
]]></style>
</defs>
<image preserveAspectRatio="none" x="302" y="250" width="248" height="245" xlink:href="img/1.png" />
<path d="M302.5,494.8l247.5,0l0,-245.2l-247.5,0l0,245.2Z" class="g1_14" />
<image preserveAspectRatio="none" x="118" y="120" width="213" height="244" xlink:href="img/2.png" />
<path d="M119.9,362.6l209.3,0l0,-241.2l-209.3,0l0,241.2Z" class="g1_14" />
<image preserveAspectRatio="none" x="91" y="514" width="285" height="285" xlink:href="img/3.png" />
<path d="M92.5,797.1l281.8,0l0,-281.9l-281.8,0l0,281.9Z" class="g1_14" />
<image preserveAspectRatio="none" x="748" y="334" width="365" height="365" xlink:href="img/4.png" />
<path d="M749.6,697.8l362.1,0l0,-362.2l-362.1,0l0,362.2Z" class="g1_14" />
<path d="M667.1,357.8l209.3,0l0,-172.7l-209.3,0l0,172.7Z" class="g2_14" />
</svg>